<svg xmlns="http://www.w3.org/2000/svg" height="20" width="20"><path fill="#FFFFFF" d="M4.417 15.917q-.459 0-.771-.313-.313-.312-.313-.771V5.167q0-.479.313-.782.312-.302.771-.302h9.666q.459 0 .771.302.313.303.313.782v1.666h1.5v.417h-1.5v2.542h1.5v.416h-1.5v2.542h1.5v.417h-1.5v1.666q0 .459-.313.771-.312.313-.771.313Zm0-.417h9.666q.25 0 .459-.208.208-.209.208-.459V5.167q0-.25-.208-.459-.209-.208-.459-.208H4.417q-.25 0-.459.208-.208.209-.208.459v9.666q0 .25.208.459.209.208.459.208Zm1.666-2.333h2.959v-1.959H6.083Zm4.375-5.375h1.959v-.959h-1.959Zm-4.375 2h2.959V6.833H6.083Zm4.375 3.375h1.959V9.208h-1.959ZM3.75 4.5v11-11Z"/></svg>