<svg xmlns="http://www.w3.org/2000/svg" height="20" width="20"><path fill="#FFFFFF" d="M14.208 11.708v-.416h2.042q.083 0 .146.062.062.063.062.146 0 .083-.062.146-.063.062-.146.062Zm0 3v-.416h2.042q.083 0 .146.062.062.063.062.146 0 .083-.062.146-.063.062-.146.062Zm-2.708.75q-.417 0-.688-.437-.27-.438-.27-1.063h-1.5v-1.916h1.5q0-.625.27-1.063.271-.437.688-.437h1.708v4.916ZM6 13.208q-1.042 0-1.75-.708t-.708-1.75q0-1.042.708-1.75T6 8.292h1.375q.687 0 1.177-.5t.49-1.167q0-.687-.49-1.177t-1.177-.49H4.75q-.083 0-.146-.062-.062-.063-.062-.146 0-.083.062-.146.063-.062.146-.062h2.625q.896 0 1.49.593.593.594.593 1.49t-.593 1.49q-.594.593-1.49.593H6q-.833 0-1.438.604-.604.605-.604 1.438 0 .854.604 1.448.605.594 1.438.594h2.042v.416Z"/></svg>