<svg xmlns="http://www.w3.org/2000/svg" height="20" width="20"><path fill="#ffffff" d="M14.896 16.917q-.104 0-.198-.042-.094-.042-.177-.125l-3.833-3.812q-.084-.084-.136-.188-.052-.104-.052-.208t.052-.198q.052-.094.136-.177l1.437-1.438q.083-.083.177-.135.094-.052.198-.052.104 0 .208.052t.188.135l3.833 3.833q.083.084.125.178.042.093.042.198 0 .104-.042.208t-.125.187l-1.458 1.417q-.083.083-.177.125-.094.042-.198.042Zm0-.375 1.604-1.604-4.021-4.021-1.604 1.604Zm-9.771.354q-.125 0-.219-.052t-.177-.136l-1.458-1.437q-.083-.083-.115-.167-.031-.083-.031-.187 0-.105.042-.209.041-.104.125-.187l3.604-3.604h1.896L9.708 10 6.583 6.875H5.396L3.188 4.688l1.5-1.521 2.208 2.208v1.187l3.125 3.126 2.458-2.459-1.667-1.687.959-.959h-1.479l-.354-.333L12 2.188l.333.333v1.5l.459-.459 3.458 3.417q.292.271.438.656.145.386.145.782 0 .25-.073.5-.072.25-.198.479l-1.958-1.958-.979.958-.854-.854-3.688 3.666v1.959l-3.562 3.562q-.083.083-.177.125-.094.042-.219.042Zm-.021-.375 3.542-3.542v-1.604H7.021l-3.5 3.521Zm0 0-1.583-1.625.791.812.792.813Zm9.792.021 1.604-1.604Z"/></svg>