<svg xmlns="http://www.w3.org/2000/svg" height="20" width="20"><path fill="#FFFFFF" d="M9.083 10.917V9.083h1.834v1.834ZM9.5 10.5h1v-1h-1Zm-1.458 4.917v-1.5h-.875q-.459 0-.771-.313-.313-.312-.313-.771v-.875h-1.5v-.416h1.5V8.458h-1.5v-.416h1.5v-.875q0-.459.313-.771.312-.313.771-.313h.875v-1.5h.416v1.5h3.084v-1.5h.416v1.5h.875q.459 0 .771.313.313.312.313.771v.875h1.5v.416h-1.5v3.084h1.5v.416h-1.5v.875q0 .459-.313.771-.312.313-.771.313h-.875v1.5h-.416v-1.5H8.458v1.5Zm4.791-1.917q.25 0 .459-.208.208-.209.208-.459V7.167q0-.25-.208-.459-.209-.208-.459-.208H7.167q-.25 0-.459.208-.208.209-.208.459v5.666q0 .25.208.459.209.208.459.208ZM10 10Z"/></svg>