<svg xmlns="http://www.w3.org/2000/svg" height="20" width="20"><path fill="#ffffff" d="M8.667 9.042h2.666V3.708q0-.541-.395-.937-.396-.396-.938-.396-.542 0-.938.396-.395.396-.395.937Zm-4.292 2.583h11.25v-1.5q0-.292-.187-.479-.188-.188-.48-.188H5.042q-.292 0-.48.188-.187.187-.187.479Zm-.292 5H6.25v-1.792q0-.083.062-.145.063-.063.146-.063.084 0 .146.063.063.062.063.145v1.792h3.125v-1.792q0-.083.062-.145.063-.063.146-.063.083 0 .146.063.062.062.062.145v1.792h3.125v-1.792q0-.083.063-.145.062-.063.146-.063.083 0 .146.063.062.062.062.145v1.792h2.167q.333 0 .541-.26.209-.261.104-.573l-1.041-3.75H4.5l-1.062 3.75q-.105.312.104.573.208.26.541.26Zm12 .417H3.917q-.459 0-.761-.354-.302-.355-.177-.813l.979-3.396V10q0-.417.271-.688.271-.27.688-.27H8.25V3.708q0-.729.51-1.239.511-.511 1.24-.511t1.24.511q.51.51.51 1.239v5.334h3.333q.417 0 .688.27.271.271.271.688v2.479l.979 3.438q.062.437-.229.781-.292.344-.709.344ZM4.625 10.958h-.25v-1.5h.667-1.084.667Zm6.708-1.916H8.667h2.666Z"/></svg>