<svg xmlns="http://www.w3.org/2000/svg" height="20" width="20"><path fill="#FFFFFF" d="M4.854 15.333v-1h1.792L5.167 8.479q-.646-.25-.979-.719-.334-.468-.334-1.135 0-.833.573-1.396.573-.562 1.406-.562.75 0 1.292.479t.687 1.271h2.126V4.875q0-.083.062-.146.062-.062.146-.062.25 0 .375.218.125.219 0 .49v.437l2.125-1.791q.146-.125.292-.125.145 0 .291.062l2.646 1.209q.167.062.26.218.094.157-.01.344-.063.146-.229.209-.167.062-.354 0L13 4.771l-2.229 1.854L13 8.5l2.542-1.167q.187-.083.333-.031.146.052.25.24.063.146-.021.302-.083.156-.229.26l-2.646 1.167q-.125.083-.281.062-.156-.021-.302-.125l-2.125-1.75v.417q.125.313 0 .51-.125.198-.375.198-.084 0-.146-.062-.062-.063-.062-.146V6.833H7.812q-.083.438-.333.844-.25.406-.521.656l3.417 6h3.396v1Zm.958-7.041q.688 0 1.178-.49.489-.49.489-1.177 0-.667-.489-1.156-.49-.49-1.178-.49-.687 0-1.177.49-.489.489-.489 1.156 0 .687.489 1.177.49.49 1.177.49Zm1.292 6.041h2.792L6.604 8.562q-.208.105-.427.178-.219.072-.489.031Zm2.792 0Z"/></svg>