<svg xmlns="http://www.w3.org/2000/svg" height="20" width="20"><path fill="#FFFFFF" d="M15.917 6.458v8.375q0 .479-.302.782-.303.302-.782.302H5.167q-.479 0-.782-.302-.302-.303-.302-.782V5.167q0-.479.302-.782.303-.302.782-.302h8.375Zm-.417.167L13.375 4.5H5.167q-.292 0-.479.188-.188.187-.188.479v9.666q0 .292.188.479.187.188.479.188h9.666q.292 0 .479-.188.188-.187.188-.479ZM10 13.167q.479 0 .823-.344t.344-.823q0-.479-.344-.823T10 10.833q-.479 0-.823.344T8.833 12q0 .479.344.823t.823.344ZM6.333 8.25h5.292V6.333H6.333ZM4.5 6.896V15.5v-11Z"/></svg>