<svg xmlns="http://www.w3.org/2000/svg" height="20" width="20"><path fill="#ffffff" d="M5.5 3.5v2.417V3.5v13-13Zm.667 13.417q-.479 0-.782-.302-.302-.303-.302-.782V4.167q0-.479.302-.782.303-.302.782-.302h6.375l2.375 2.375v4.625q-.125.042-.229.084-.105.041-.188.083V5.917h-2.417V3.5H6.167q-.25 0-.459.208-.208.209-.208.459v11.666q0 .25.208.459.209.208.459.208h4.187q0 .104.011.188.01.083.01.229Zm7.395-.105-.291-.291 1.437-1.438-1.437-1.437.291-.292L15 14.792l1.438-1.438.291.292-1.437 1.437 1.437 1.438-.291.291L15 15.375Z"/></svg>