<svg xmlns="http://www.w3.org/2000/svg" height="20" width="20"><path fill="#FFFFFF" d="M13.833 16.917H6.167q-.479 0-.782-.323-.302-.323-.302-.761V4.167q0-.438.302-.761.303-.323.782-.323h7.666q.438 0 .761.323t.323.761v11.666q0 .438-.323.761t-.761.323Zm0-.417q.292 0 .479-.188.188-.187.188-.479V4.167q0-.292-.188-.479-.187-.188-.479-.188H6.167q-.292 0-.479.188-.188.187-.188.479v11.666q0 .292.188.479.187.188.479.188ZM10 7.083q.458 0 .771-.323.312-.322.312-.76 0-.458-.323-.771-.322-.312-.76-.312-.458 0-.771.323-.312.322-.312.76 0 .458.323.771.322.312.76.312Zm0 7.834q1.229 0 2.073-.844.844-.844.844-2.073t-.844-2.073q-.844-.844-2.073-.844t-2.073.844q-.844.844-.844 2.073t.844 2.073q.844.844 2.073.844Zm0-.417q-1.042 0-1.771-.74Q7.5 13.021 7.5 12q0-1.042.74-1.771Q8.979 9.5 10 9.5q1.042 0 1.771.74.729.739.729 1.76 0 1.042-.74 1.771-.739.729-1.76.729Zm-4.5-11v13-13Z"/></svg>