<svg xmlns="http://www.w3.org/2000/svg" height="20" width="20"><path fill="#FFFFFF" d="M10 8.458v-.416h3.833v.416Zm0-2.75v-.416h5.833v.416ZM7.167 15.917q-1.229 0-2.073-.844Q4.25 14.229 4.25 13q0-.75.385-1.427.386-.677 1.115-1.094V5.5q0-.604.406-1.01.406-.407 1.011-.407.604 0 1.01.407.406.406.406 1.01v4.979q.729.417 1.115 1.094.385.677.385 1.427 0 1.188-.864 2.052-.865.865-2.052.865ZM4.667 13h5q0-.562-.323-1.094-.323-.531-.906-1.01l-.271-.271V5.5q0-.417-.292-.708-.292-.292-.708-.292-.417 0-.709.292-.291.291-.291.708v5.125l-.25.271q-.605.479-.927 1.021-.323.541-.323 1.083Z"/></svg>