<svg xmlns="http://www.w3.org/2000/svg" height="20" width="20"><path fill="#FFFFFF" d="m18.5 7.458-.312-.646-.646-.312.646-.312.312-.646.312.646.646.312-.646.312Zm-3-3.25-.521-1.187-1.187-.521 1.187-.521L15.5.792l.521 1.187 1.187.521-1.187.521Zm-8 12.875q-.479 0-.833-.302-.355-.302-.459-.781h2.584q-.104.479-.459.781-.354.302-.833.302Zm-2.458-2.916v-.417h4.916v.417Zm-.521-2.25q-.917-.709-1.427-1.719Q2.583 9.188 2.583 8q0-2.062 1.427-3.49Q5.438 3.083 7.5 3.083q2.062 0 3.49 1.427Q12.417 5.938 12.417 8q0 1.188-.511 2.198-.51 1.01-1.427 1.719Zm.146-.417h5.645q.792-.667 1.24-1.583Q12 9 12 8q0-1.875-1.312-3.188Q9.375 3.5 7.5 3.5q-1.875 0-3.188 1.312Q3 6.125 3 8q0 1.021.438 1.927.437.906 1.229 1.573Zm2.833 0Z"/></svg>