<svg xmlns="http://www.w3.org/2000/svg" height="20" width="20"><path fill="#FFFFFF" d="M4.167 12.917q-.459 0-.771-.313-.313-.312-.313-.771V8.167q0-.459.313-.771.312-.313.771-.313h11.666q.459 0 .771.313.313.312.313.771v3.666q0 .459-.313.771-.312.313-.771.313Zm0-.417h11.666q.292 0 .479-.188.188-.187.188-.479V8.167q0-.292-.188-.479-.187-.188-.479-.188h-2.437q.229.25.375.573.146.323.146.677 0 .688-.479 1.177-.48.49-1.188.49h-4.5q-.688 0-1.177-.49-.49-.489-.49-1.177 0-.354.146-.677.146-.323.375-.573H4.167q-.292 0-.479.188-.188.187-.188.479v3.666q0 .292.188.479.187.188.479.188ZM7.75 10h2.042V7.5H7.75q-.521 0-.885.365-.365.364-.365.885t.365.885q.364.365.885.365Zm2.458 0h2.042q.521 0 .885-.365.365-.364.365-.885t-.365-.885q-.364-.365-.885-.365h-2.042Zm5.625 2.5H3.5h.667H3.5h13-.667.667-.667Z"/></svg>